<svg viewBox="0 0 14.5 20" fill="none" xmlns="http://www.w3.org/2000/svg">
<path d="M1 6C0.716667 6 0.479167 5.90417 0.2875 5.7125C0.0958333 5.52083 0 5.28333 0 5C0 4.71667 0.0958333 4.47917 0.2875 4.2875C0.479167 4.09583 0.716667 4 1 4C1.28333 4 1.52083 4.09583 1.7125 4.2875C1.90417 4.47917 2 4.71667 2 5C2 5.28333 1.90417 5.52083 1.7125 5.7125C1.52083 5.90417 1.28333 6 1 6ZM5.5 20C4.4 20 3.45833 19.6083 2.675 18.825C1.89167 18.0417 1.5 17.1 1.5 16V10C1.5 8.33333 2.08333 6.91667 3.25 5.75C4.41667 4.58333 5.83333 4 7.5 4H9.325C10.475 4 11.4583 4.3875 12.275 5.1625C13.0917 5.9375 13.5 6.89167 13.5 8.025C13.5 8.79167 13.2958 9.49583 12.8875 10.1375C12.4792 10.7792 11.925 11.2667 11.225 11.6C10.6917 11.85 10.2708 12.2208 9.9625 12.7125C9.65417 13.2042 9.5 13.7417 9.5 14.325V16C9.5 17.1167 9.1125 18.0625 8.3375 18.8375C7.5625 19.6125 6.61667 20 5.5 20ZM3.5 4C3.21667 4 2.97917 3.90417 2.7875 3.7125C2.59583 3.52083 2.5 3.28333 2.5 3V2.5C2.5 2.21667 2.59583 1.97917 2.7875 1.7875C2.97917 1.59583 3.21667 1.5 3.5 1.5C3.78333 1.5 4.02083 1.59583 4.2125 1.7875C4.40417 1.97917 4.5 2.21667 4.5 2.5V3C4.5 3.28333 4.40417 3.52083 4.2125 3.7125C4.02083 3.90417 3.78333 4 3.5 4ZM5.5 18C6.05 18 6.52083 17.8042 6.9125 17.4125C7.30417 17.0208 7.5 16.55 7.5 16V14.325C7.5 13.3583 7.75417 12.4667 8.2625 11.65C8.77083 10.8333 9.46667 10.2167 10.35 9.8C10.7 9.63333 10.9792 9.3875 11.1875 9.0625C11.3958 8.7375 11.5 8.38333 11.5 8C11.5 7.41667 11.2833 6.9375 10.85 6.5625C10.4167 6.1875 9.90833 6 9.325 6H7.5C6.4 6 5.45833 6.39167 4.675 7.175C3.89167 7.95833 3.5 8.9 3.5 10V16C3.5 16.55 3.69583 17.0208 4.0875 17.4125C4.47917 17.8042 4.95 18 5.5 18ZM6.5 3C6.21667 3 5.97917 2.90417 5.7875 2.7125C5.59583 2.52083 5.5 2.28333 5.5 2V1.5C5.5 1.21667 5.59583 0.979167 5.7875 0.7875C5.97917 0.595833 6.21667 0.5 6.5 0.5C6.78333 0.5 7.02083 0.595833 7.2125 0.7875C7.40417 0.979167 7.5 1.21667 7.5 1.5V2C7.5 2.28333 7.40417 2.52083 7.2125 2.7125C7.02083 2.90417 6.78333 3 6.5 3ZM9.5 3C9.21667 3 8.97917 2.90417 8.7875 2.7125C8.59583 2.52083 8.5 2.28333 8.5 2V1C8.5 0.716667 8.59583 0.479167 8.7875 0.2875C8.97917 0.0958333 9.21667 0 9.5 0C9.78333 0 10.0208 0.0958333 10.2125 0.2875C10.4042 0.479167 10.5 0.716667 10.5 1V2C10.5 2.28333 10.4042 2.52083 10.2125 2.7125C10.0208 2.90417 9.78333 3 9.5 3ZM13 4C12.5833 4 12.2292 3.85417 11.9375 3.5625C11.6458 3.27083 11.5 2.91667 11.5 2.5V1.5C11.5 1.08333 11.6458 0.729167 11.9375 0.4375C12.2292 0.145833 12.5833 0 13 0C13.4167 0 13.7708 0.145833 14.0625 0.4375C14.3542 0.729167 14.5 1.08333 14.5 1.5V2.5C14.5 2.91667 14.3542 3.27083 14.0625 3.5625C13.7708 3.85417 13.4167 4 13 4Z" fill="currentColor"/>
</svg>
