<svg viewBox="0 0 200 200" fill="none" xmlns="http://www.w3.org/2000/svg">
  <path d="M156.451 100.867C156.451 92.1778 150.341 84.9778 142.324 83.6001C148.026 77.6001 148.905 68.0667 143.974 61.0223C139.044 53.9778 130.019 51.8889 122.751 55.6667C123.973 47.3334 119.257 39.0889 111.282 36.4001C103.307 33.7112 94.8182 37.5334 91.088 45.0001C87.3579 37.5334 78.8687 33.7334 70.8939 36.4223C62.9192 39.1112 58.2029 47.3556 59.4248 55.6889C52.1575 51.9112 43.1323 54.0001 38.2017 61.0445C33.2711 68.0667 34.15 77.6223 39.8524 83.6223C31.8348 85 25.7251 92.1778 25.7251 100.889C25.7251 109.6 31.8348 116.778 39.8524 118.156C34.15 124.156 33.2711 133.689 38.2017 140.733C43.1323 147.778 52.1575 149.867 59.4248 146.089C58.2029 154.422 62.9192 162.667 70.8939 165.356C78.8687 168.044 87.3579 164.222 91.088 156.756C94.8182 164.222 103.307 168.044 111.282 165.356C119.257 162.667 123.973 154.422 122.751 146.089C130.019 149.867 139.044 147.778 143.974 140.733C148.905 133.711 148.026 124.156 142.324 118.156C150.341 116.778 156.451 109.6 156.451 100.889V100.867Z" fill="#9EC6F0"/>
  <path d="M149.472 126.422C135.86 126.422 124.798 114.956 124.798 100.844C124.798 86.7333 135.86 75.2667 149.472 75.2667C163.085 75.2667 174.147 86.7333 174.147 100.844C174.147 114.956 163.085 126.422 149.472 126.422Z" fill="url(#paint0_linear_31_350)"/>
  <path d="M149.473 77.5111C161.906 77.5111 172.003 87.9778 172.003 100.867C172.003 113.756 161.906 124.222 149.473 124.222C137.039 124.222 126.942 113.756 126.942 100.867C126.942 87.9778 137.039 77.5111 149.473 77.5111ZM149.473 73.0667C134.681 73.0667 122.654 85.5333 122.654 100.867C122.654 116.2 134.681 128.667 149.473 128.667C164.264 128.667 176.291 116.2 176.291 100.867C176.291 85.5333 164.264 73.0667 149.473 73.0667Z" fill="white"/>
  <defs>
    <linearGradient id="paint0_linear_31_350" x1="124.798" y1="100.867" x2="174.147" y2="100.867" gradientUnits="userSpaceOnUse">
      <stop stop-color="#FD1EAF"/>
      <stop offset="1" stop-color="#C500A2"/>
    </linearGradient>
  </defs>
</svg>
