<svg viewBox="0 0 13 20" fill="none" xmlns="http://www.w3.org/2000/svg">
<path d="M6.5 0C7.33333 0 8.04167 0.291667 8.625 0.875C9.20833 1.45833 9.5 2.16667 9.5 3C9.5 3.83333 9.20833 4.54167 8.625 5.125C8.04167 5.70833 7.33333 6 6.5 6C5.66667 6 4.95833 5.70833 4.375 5.125C3.79167 4.54167 3.5 3.83333 3.5 3C3.5 2.16667 3.79167 1.45833 4.375 0.875C4.95833 0.291667 5.66667 0 6.5 0ZM6.5 7C7.28333 7 8.05833 7.09167 8.825 7.275C9.59167 7.45833 10.2833 7.71667 10.9 8.05C11.5333 8.36667 12.0417 8.74167 12.425 9.175C12.8083 9.60833 13 10.0833 13 10.6V16.4C13 16.6833 12.9333 16.9625 12.8 17.2375C12.6667 17.5125 12.4833 17.7667 12.25 18C12.0167 18.2333 11.7458 18.45 11.4375 18.65C11.1292 18.85 10.7833 19.0333 10.4 19.2V16.95C10.4 16.3167 9.9625 15.8 9.0875 15.4C8.2125 15 7.35 14.8 6.5 14.8C5.66667 14.8 4.8625 14.9708 4.0875 15.3125C3.3125 15.6542 2.83333 16.1 2.65 16.65C3.28333 16.9 3.93333 17.075 4.6 17.175C5.26667 17.275 5.95 17.3333 6.65 17.35H7.5V19.95C7.38333 19.9833 7.2625 20 7.1375 20H6.75C6.15 20 5.4625 19.9333 4.6875 19.8C3.9125 19.6667 3.175 19.4583 2.475 19.175C1.775 18.8917 1.1875 18.5208 0.7125 18.0625C0.2375 17.6042 0 17.05 0 16.4V10.6C0 10.0833 0.191667 9.60833 0.575 9.175C0.958333 8.74167 1.45833 8.36667 2.075 8.05C2.70833 7.71667 3.40833 7.45833 4.175 7.275C4.94167 7.09167 5.71667 7 6.5 7ZM6.5 13C7.05 13 7.52083 12.8042 7.9125 12.4125C8.30417 12.0208 8.5 11.55 8.5 11C8.5 10.45 8.30417 9.97917 7.9125 9.5875C7.52083 9.19583 7.05 9 6.5 9C5.95 9 5.47917 9.19583 5.0875 9.5875C4.69583 9.97917 4.5 10.45 4.5 11C4.5 11.55 4.69583 12.0208 5.0875 12.4125C5.47917 12.8042 5.95 13 6.5 13Z" fill="currentColor"/>
</svg>
