<svg viewBox="0 0 16 20" fill="none" xmlns="http://www.w3.org/2000/svg">
<path d="M3.5 20C2.53333 20 1.70833 19.6583 1.025 18.975C0.341667 18.2917 0 17.4667 0 16.5V3.5C0 2.53333 0.341667 1.70833 1.025 1.025C1.70833 0.341667 2.53333 0 3.5 0H16V15C15.5833 15 15.2292 15.1458 14.9375 15.4375C14.6458 15.7292 14.5 16.0833 14.5 16.5C14.5 16.9167 14.6458 17.2708 14.9375 17.5625C15.2292 17.8542 15.5833 18 16 18V20H3.5ZM2 13.325C2.23333 13.2083 2.475 13.125 2.725 13.075C2.975 13.025 3.23333 13 3.5 13H4V2H3.5C3.08333 2 2.72917 2.14583 2.4375 2.4375C2.14583 2.72917 2 3.08333 2 3.5V13.325ZM6 13H14V2H6V13ZM3.5 18H12.825C12.725 17.7667 12.6458 17.5292 12.5875 17.2875C12.5292 17.0458 12.5 16.7833 12.5 16.5C12.5 16.2333 12.525 15.975 12.575 15.725C12.625 15.475 12.7083 15.2333 12.825 15H3.5C3.06667 15 2.70833 15.1458 2.425 15.4375C2.14167 15.7292 2 16.0833 2 16.5C2 16.9333 2.14167 17.2917 2.425 17.575C2.70833 17.8583 3.06667 18 3.5 18Z" fill="currentColor"/>
</svg>
