<svg viewBox="0 0 10 20" fill="none" xmlns="http://www.w3.org/2000/svg">
<path d="M1 5C0.716667 5 0.479167 4.90417 0.2875 4.7125C0.0958333 4.52083 0 4.28333 0 4C0 3.71667 0.0958333 3.47917 0.2875 3.2875C0.479167 3.09583 0.716667 3 1 3H4V1C4 0.716667 4.09583 0.479167 4.2875 0.2875C4.47917 0.0958333 4.71667 0 5 0C5.28333 0 5.52083 0.0958333 5.7125 0.2875C5.90417 0.479167 6 0.716667 6 1V3H9C9.28333 3 9.52083 3.09583 9.7125 3.2875C9.90417 3.47917 10 3.71667 10 4C10 4.28333 9.90417 4.52083 9.7125 4.7125C9.52083 4.90417 9.28333 5 9 5H1ZM2 20C1.45 20 0.979167 19.8042 0.5875 19.4125C0.195833 19.0208 0 18.55 0 18V9C0 8.16667 0.291667 7.45833 0.875 6.875C1.45833 6.29167 2.16667 6 3 6H7C7.83333 6 8.54167 6.29167 9.125 6.875C9.70833 7.45833 10 8.16667 10 9V18C10 18.55 9.80417 19.0208 9.4125 19.4125C9.02083 19.8042 8.55 20 8 20H2ZM2 18H8V9C8 8.71667 7.90417 8.47917 7.7125 8.2875C7.52083 8.09583 7.28333 8 7 8H3C2.71667 8 2.47917 8.09583 2.2875 8.2875C2.09583 8.47917 2 8.71667 2 9V10H4C4.28333 10 4.52083 10.0958 4.7125 10.2875C4.90417 10.4792 5 10.7167 5 11C5 11.2833 4.90417 11.5208 4.7125 11.7125C4.52083 11.9042 4.28333 12 4 12H2V14H4C4.28333 14 4.52083 14.0958 4.7125 14.2875C4.90417 14.4792 5 14.7167 5 15C5 15.2833 4.90417 15.5208 4.7125 15.7125C4.52083 15.9042 4.28333 16 4 16H2V18Z" fill="currentColor"/>
</svg>
