<svg width="73" height="70" viewBox="0 0 73 70" fill="none" xmlns="http://www.w3.org/2000/svg">
<path d="M32.3232 4.80103C34.3139 2.39997 38.0181 2.39998 40.0088 4.80103L40.2021 5.04907L50.0449 18.509L65.8877 23.7102C69.103 24.7657 70.3627 28.6441 68.3818 31.3879L58.6211 44.9065L58.5713 61.5833C58.5608 64.9671 55.2625 67.3631 52.041 66.3274L36.166 61.2219L20.291 66.3274C17.0696 67.3631 13.7712 64.9671 13.7607 61.5833L13.71 44.9065L3.9502 31.3879C1.96935 28.6441 3.22902 24.7657 6.44434 23.7102L22.2861 18.509L32.1299 5.04907L32.3232 4.80103Z" fill="url(#paint0_linear_309_2248)" stroke="white" stroke-width="6"/>
<defs>
<linearGradient id="paint0_linear_309_2248" x1="3.16602" y1="37.6402" x2="69.166" y2="37.6402" gradientUnits="userSpaceOnUse">
<stop stop-color="#FFE882"/>
<stop offset="1" stop-color="#FDD318"/>
</linearGradient>
</defs>
</svg>
