<svg width="94" height="117" viewBox="0 0 94 117" fill="none" xmlns="http://www.w3.org/2000/svg">
<mask id="mask0_2132_4308" style="mask-type:alpha" maskUnits="userSpaceOnUse" x="0" y="0" width="94" height="117">
<path d="M0 12C0 5.37258 5.37258 0 12 0H94V117H12C5.37258 117 0 111.627 0 105V12Z" fill="#D9D9D9"/>
</mask>
<g mask="url(#mask0_2132_4308)">
<path d="M-27 0H142V117H-27V0Z" fill="#3B83CF"/>
<rect x="-27" y="71.9551" width="169" height="45.045" fill="#0159B5"/>
<mask id="mask1_2132_4308" style="mask-type:alpha" maskUnits="userSpaceOnUse" x="-27" y="0" width="169" height="117">
<path d="M-27 12C-27 5.37258 -21.6274 0 -15 0H130C136.627 0 142 5.37258 142 12V117H-27V12Z" fill="#99E0E2"/>
</mask>
<g mask="url(#mask1_2132_4308)">
<path d="M23.7002 76.472C23.7002 71.3206 27.8763 67.1445 33.0277 67.1445H33.4095C38.5609 67.1445 42.737 71.3206 42.737 76.472V76.472C42.737 81.6235 38.5609 85.7995 33.4095 85.7995H33.0277C27.8763 85.7995 23.7002 81.6235 23.7002 76.472V76.472Z" fill="#9EC6F0"/>
<path d="M-9.44416 36.7167C-5.59887 30.0308 4.04765 30.0308 7.89294 36.7166L36.5318 86.5114C40.3661 93.1781 35.5539 101.497 27.8633 101.497H-29.4145C-37.1051 101.497 -41.9173 93.1781 -38.083 86.5114L-9.44416 36.7167Z" fill="#9EC6F0"/>
<path d="M0.130859 58.5V62.6501" stroke="#0159B5" stroke-width="4" stroke-linecap="round"/>
<path d="M13.9111 58.5V62.6501" stroke="#0159B5" stroke-width="4" stroke-linecap="round"/>
<ellipse cx="24.8776" cy="77.84" rx="14.322" ry="14.3341" fill="url(#paint0_linear_2132_4308)"/>
<path d="M22.3242 84.0026C22.3242 78.9648 18.2403 74.8809 13.2025 74.8809H-9.78394C-14.8217 74.8809 -18.9057 78.9648 -18.9057 84.0026V84.0026C-18.9057 89.0404 -14.8217 93.1243 -9.78394 93.1243H13.2025C18.2403 93.1243 22.3242 89.0404 22.3242 84.0026V84.0026Z" fill="#9EC6F0"/>
<path d="M1.05828 74.8809H12.7681C18.0458 74.8809 22.3242 79.1593 22.3242 84.4369" stroke="#0159B5" stroke-width="4" stroke-linecap="round"/>
<path d="M12.7762 93.9922C18.0494 93.9922 22.3242 89.7093 22.3242 84.4361" stroke="#0159B5" stroke-width="4" stroke-linecap="round"/>
<path d="M102.877 28.5576C107.09 25.4847 112.806 25.4847 117.019 28.5576L145.048 48.9999C149.237 52.0557 150.99 57.4569 149.393 62.3906L138.669 95.5246C137.066 100.475 132.456 103.829 127.252 103.829H92.6439C87.4402 103.829 82.8295 100.475 81.227 95.5246L70.5024 62.3906C68.9055 57.4569 70.6584 52.0557 74.8481 48.9999L102.877 28.5576Z" fill="#99E0E2"/>
<path d="M93.7794 63.8613C93.7794 62.5621 92.6254 61.5089 91.2017 61.5089C89.7781 61.5089 88.624 62.5621 88.624 63.8613" stroke="#0159B5" stroke-width="4" stroke-linecap="round"/>
<mask id="path-15-inside-1_2132_4308" fill="white">
<path d="M105.392 72.2559C106.615 72.2559 107.734 73.0842 107.734 74.3076C107.734 78.6883 104.197 82.2402 99.833 82.2402C95.4692 82.2401 91.9316 78.6883 91.9316 74.3076C91.9317 73.0841 93.0518 72.2559 94.2753 72.2559H105.392Z"/>
</mask>
<path d="M107.734 74.3076H111.734V74.3075L107.734 74.3076ZM99.833 82.2402L99.8329 86.2402H99.833V82.2402ZM91.9316 74.3076L87.9316 74.3075V74.3076H91.9316ZM107.734 74.3076H103.734C103.734 76.4943 101.973 78.2402 99.833 78.2402V82.2402V86.2402C106.421 86.2402 111.734 80.8824 111.734 74.3076H107.734ZM99.833 82.2402L99.8331 78.2402C97.6932 78.2402 95.9316 76.4941 95.9316 74.3076H91.9316H87.9316C87.9316 80.8825 93.2451 86.2401 99.8329 86.2402L99.833 82.2402ZM94.2753 72.2559V76.2559H105.392V72.2559V68.2559H94.2753V72.2559ZM91.9316 74.3076L95.9316 74.3078C95.9316 75.0153 95.5775 75.5864 95.202 75.8986C94.8701 76.1746 94.5355 76.2559 94.2753 76.2559V72.2559V68.2559C91.5654 68.2559 87.9318 70.2156 87.9316 74.3075L91.9316 74.3076ZM107.734 74.3076L111.734 74.3075C111.734 70.2178 108.104 68.2559 105.392 68.2559V72.2559V76.2559C105.131 76.2559 104.796 76.1743 104.464 75.8978C104.088 75.585 103.734 75.014 103.734 74.3078L107.734 74.3076Z" fill="#0159B5" mask="url(#path-15-inside-1_2132_4308)"/>
</g>
</g>
<defs>
<linearGradient id="paint0_linear_2132_4308" x1="10.5557" y1="77.8524" x2="39.1996" y2="77.8524" gradientUnits="userSpaceOnUse">
<stop stop-color="#FD1EAF"/>
<stop offset="1" stop-color="#C500A2"/>
</linearGradient>
</defs>
</svg>
