<svg width="94" height="117" viewBox="0 0 94 117" fill="none" xmlns="http://www.w3.org/2000/svg">
<mask id="mask0_2135_8518" style="mask-type:alpha" maskUnits="userSpaceOnUse" x="0" y="0" width="94" height="117">
<path d="M0 12C0 5.37258 5.37258 0 12 0H94V117H12C5.37258 117 0 111.627 0 105V12Z" fill="#D9D9D9"/>
</mask>
<g mask="url(#mask0_2135_8518)">
<path d="M-27 0H142V117H-27V0Z" fill="#FFF7D4"/>
<mask id="mask1_2135_8518" style="mask-type:alpha" maskUnits="userSpaceOnUse" x="-27" y="0" width="169" height="117">
<path d="M-27 12C-27 5.37258 -21.6274 0 -15 0H130C136.627 0 142 5.37258 142 12V117H-27V12Z" fill="#3B83CF"/>
</mask>
<g mask="url(#mask1_2135_8518)">
<path d="M108.783 53.2277C108.783 47.1596 104.561 42.1314 99.0211 41.1692C102.961 36.9789 103.569 30.3211 100.162 25.4015C96.7548 20.4819 90.5187 19.023 85.4972 21.6613C86.3415 15.8416 83.0827 10.0839 77.5724 8.20604C72.0621 6.32819 66.1963 8.99752 63.6189 14.212C61.0415 8.99752 55.1757 6.34371 49.6653 8.22156C44.155 10.0994 40.8963 15.8571 41.7406 21.6768C36.7191 19.0386 30.483 20.4974 27.076 25.417C23.6691 30.3211 24.2765 36.9945 28.2166 41.1847C22.6767 42.1469 18.4551 47.1596 18.4551 53.2432C18.4551 59.3268 22.6767 64.3396 28.2166 65.3018C24.2765 69.492 23.6691 76.1498 27.076 81.0695C30.483 85.9891 36.7191 87.4479 41.7406 84.8096C40.8963 90.6294 44.155 96.3871 49.6653 98.2649C55.1757 100.143 61.0415 97.4734 63.6189 92.2589C66.1963 97.4734 72.0621 100.143 77.5724 98.2649C83.0827 96.3871 86.3415 90.6294 85.4972 84.8096C90.5187 87.4479 96.7548 85.9891 100.162 81.0695C103.569 76.1653 102.961 69.492 99.0211 65.3018C104.561 64.3396 108.783 59.3268 108.783 53.2432V53.2277Z" fill="#9EC6F0"/>
<path d="M90.249 137.606H32.5674V56.4883H90.249V137.606Z" fill="url(#paint0_linear_2135_8518)"/>
<ellipse cx="31.91" cy="83.0155" rx="18.4139" ry="18.4296" fill="url(#paint1_linear_2135_8518)"/>
<path d="M63.1575 45.1797C63.1575 49.652 59.5351 53.2775 55.0666 53.2775C50.598 53.2775 46.9756 49.652 46.9756 45.1797" stroke="#0159B5" stroke-width="4" stroke-linecap="round"/>
<path d="M48.5243 34.2891C48.5243 35.8312 47.2789 37.0814 45.7426 37.0814C44.2063 37.0814 42.9609 35.8312 42.9609 34.2891" stroke="#0159B5" stroke-width="4" stroke-linecap="round"/>
<path d="M66.5057 34.2891C66.5057 35.8312 65.2603 37.0814 63.724 37.0814C62.1878 37.0814 60.9424 35.8312 60.9424 34.2891" stroke="#0159B5" stroke-width="4" stroke-linecap="round"/>
<path d="M32.4678 92.5092C32.4678 86.032 37.7185 80.7812 44.1957 80.7812H73.7497C80.2269 80.7812 85.4776 86.032 85.4776 92.5092V92.5092C85.4776 98.9863 80.2268 104.237 73.7497 104.237H44.1957C37.7185 104.237 32.4678 98.9863 32.4678 92.5092V92.5092Z" fill="#9EC6F0"/>
<path d="M59.8097 80.7812H44.7542C37.9686 80.7812 32.4678 86.2821 32.4678 93.0676" stroke="#0159B5" stroke-width="4" stroke-linecap="round"/>
<path d="M44.7437 105.355C37.9639 105.355 32.4678 99.8489 32.4678 93.0691" stroke="#0159B5" stroke-width="4" stroke-linecap="round"/>
<path d="M6.7998 86.6463C6.7998 81.2533 11.1717 76.873 16.5648 76.873V76.873C21.9578 76.873 26.3297 81.2533 26.3297 86.6463V86.6463C26.3297 92.0394 21.9578 96.4196 16.5648 96.4196V96.4196C11.1717 96.4196 6.7998 92.0394 6.7998 86.6463V86.6463Z" fill="#9EC6F0"/>
<ellipse cx="76.1481" cy="49.4316" rx="7.57586" ry="7.3125" fill="#FFE882"/>
<ellipse cx="35.0638" cy="49.4316" rx="7.28448" ry="7.3125" fill="#FFE882"/>
</g>
</g>
<defs>
<linearGradient id="paint0_linear_2135_8518" x1="61.7372" y1="105.843" x2="61.3737" y2="141.398" gradientUnits="userSpaceOnUse">
<stop stop-color="#9EC6F0"/>
<stop offset="0.879808" stop-color="#9EC6F0" stop-opacity="0"/>
</linearGradient>
<linearGradient id="paint1_linear_2135_8518" x1="13.4961" y1="83.0315" x2="50.324" y2="83.0315" gradientUnits="userSpaceOnUse">
<stop stop-color="#FD1EAF"/>
<stop offset="1" stop-color="#C500A2"/>
</linearGradient>
</defs>
</svg>
