<svg width="166" height="186" viewBox="0 0 166 186" fill="none" xmlns="http://www.w3.org/2000/svg">
<path d="M162.726 65.3266C162.726 56.6377 156.616 49.4377 148.599 48.06C154.301 42.06 155.18 32.5266 150.249 25.4822C145.319 18.4377 136.293 16.3488 129.026 20.1266C130.248 11.7933 125.532 3.54884 117.557 0.859954C109.582 -1.82893 101.093 1.99329 97.3629 9.45995C93.6328 1.99329 85.1436 -1.80671 77.1688 0.882177C69.1941 3.57107 64.4778 11.8155 65.6997 20.1488C58.4324 16.3711 49.4072 18.46 44.4766 25.5044C39.546 32.5266 40.4249 42.0822 46.1273 48.0822C38.1097 49.4599 32 56.6377 32 65.3488C32 74.06 38.1097 81.2377 46.1273 82.6155C40.4249 88.6155 39.546 98.1488 44.4766 105.193C49.4072 112.238 58.4324 114.327 65.6997 110.549C64.4778 118.882 69.1941 127.127 77.1688 129.816C85.1436 132.504 93.6328 128.682 97.3629 121.216C101.093 128.682 109.582 132.504 117.557 129.816C125.532 127.127 130.248 118.882 129.026 110.549C136.293 114.327 145.319 112.238 150.249 105.193C155.18 98.1711 154.301 88.6155 148.599 82.6155C156.616 81.2377 162.726 74.06 162.726 65.3488V65.3266Z" fill="#9EC6F0"/>
<path d="M136 186H53.0537V69.7998H136V186Z" fill="url(#paint0_linear_194_2325)"/>
<ellipse cx="52.1079" cy="107.8" rx="26.479" ry="26.4" fill="url(#paint1_linear_194_2325)"/>
<path d="M97.0419 53.6001C97.0419 60.0066 91.8329 65.2001 85.4072 65.2001C78.9815 65.2001 73.7725 60.0066 73.7725 53.6001" stroke="#0159B5" stroke-width="4" stroke-linecap="round"/>
<path d="M76 38C76 40.2091 74.2091 42 72 42C69.7909 42 68 40.2091 68 38" stroke="#0159B5" stroke-width="4" stroke-linecap="round"/>
<path d="M101.856 38C101.856 40.2091 100.066 42 97.8564 42C95.6473 42 93.8564 40.2091 93.8564 38" stroke="#0159B5" stroke-width="4" stroke-linecap="round"/>
<path d="M52.9102 121.4C52.9102 112.122 60.4318 104.6 69.7102 104.6H112.338C121.616 104.6 129.138 112.122 129.138 121.4C129.138 130.678 121.616 138.2 112.338 138.2H69.7102C60.4318 138.2 52.9102 130.678 52.9102 121.4Z" fill="#9EC6F0"/>
<path d="M92.2275 104.6H70.5102C60.7899 104.6 52.9102 112.48 52.9102 122.2" stroke="#0159B5" stroke-width="4" stroke-linecap="round"/>
<path d="M70.5629 139.8C60.8426 139.8 52.9102 131.92 52.9102 122.2" stroke="#0159B5" stroke-width="4" stroke-linecap="round"/>
<path d="M16 113C16 105.268 22.3099 99 30.0419 99C37.7739 99 44.0838 105.268 44.0838 113C44.0838 120.732 37.7739 127 30.0419 127C22.3099 127 16 120.732 16 113Z" fill="#9EC6F0"/>
<circle cx="115.709" cy="59.2002" r="10.5" fill="#FFE882"/>
<circle cx="56.7095" cy="59.2002" r="10.5" fill="#FFE882"/>
<defs>
<linearGradient id="paint0_linear_194_2325" x1="95" y1="140.5" x2="94.4812" y2="191.432" gradientUnits="userSpaceOnUse">
<stop stop-color="#9EC6F0"/>
<stop offset="0.879808" stop-color="#9EC6F0" stop-opacity="0"/>
</linearGradient>
<linearGradient id="paint1_linear_194_2325" x1="25.6289" y1="107.823" x2="78.587" y2="107.823" gradientUnits="userSpaceOnUse">
<stop stop-color="#FD1EAF"/>
<stop offset="1" stop-color="#C500A2"/>
</linearGradient>
</defs>
</svg>
